# xmcd CD database file
#
# Track frame offsets:
#	150
#	592
#	17812
#	39390
#	62252
#	64700
#	85072
#	109440
#	128727
#	131112
#	159085
#	181890
#	207832
#	237667
#
# Disc length: 3522 seconds
#
# Revision: 0
# Processed by: cddbd v1.5.2PL0 Copyright (c) Steve Scherf et al.
# Submitted via: CDex 1.51
#
DISCID=b10dc00e
DTITLE=Tom Braxton - Katallasso
DYEAR=1900
DGENRE=Jazz
TTITLE0=Intro
TTITLE1=Sacramento
TTITLE2=Surrender
TTITLE3=The Way
TTITLE4=Interlude
TTITLE5=Katallasso
TTITLE6=Don't Worry 'Bout A Thing
TTITLE7=Ian's Song
TTITLE8=Interlude
TTITLE9=Samba São
TTITLE10=Diamonds In the Rough
TTITLE11=here ia a Fountain
TTITLE12=Everlasting Life
TTITLE13=Katallasso (bonus track)
EXTD=
EXTT0=
EXTT1=
EXTT2=
EXTT3=
EXTT4=
EXTT5=
EXTT6=
EXTT7=
EXTT8=
EXTT9=
EXTT10=
EXTT11=
EXTT12=
EXTT13=
PLAYORDER=
